<?xml version="1.0" encoding="utf-8"?>
<!-- Generator: Adobe Illustrator 23.0.6, SVG Export Plug-In . SVG Version: 6.00 Build 0)  -->
<svg version="1.1" id="katman_1" xmlns="http://www.w3.org/2000/svg" xmlns:xlink="http://www.w3.org/1999/xlink" x="0px" y="0px"
	 viewBox="0 0 187 60" style="enable-background:new 0 0 187 60;" xml:space="preserve">
<style type="text/css">
	.st0{fill:#FFFFFF;}
	.st1{fill:#C1272D;}
</style>
<g>
	<g id="katman_1-2">
		<path class="st0" d="M36,48.9c-0.1-1.9,1.4-3.5,3.3-3.6c0.1,0,0.2,0,0.3,0c1.4-0.1,2.8,0.8,3.2,2.2h-0.3c-0.5-1.2-1.6-1.9-2.9-1.9
			c-1.8,0-3.3,1.5-3.3,3.3c0,1.8,1.5,3.3,3.3,3.3c1.3,0,2.5-0.8,2.9-2h0.3c-0.4,1.4-1.8,2.4-3.3,2.3c-1.9,0.1-3.5-1.4-3.6-3.3
			C36,49.1,36,49,36,48.9"/>
		<path class="st0" d="M46.9,47v0.3h-0.5c-1,0-1.9,0.9-1.9,1.9c0,0.1,0,0.1,0,0.2v3h-0.3V47h0.3l0.1,1.2c0.3-0.8,1.1-1.3,1.9-1.2
			H46.9z"/>
		<path class="st0" d="M52.7,49.8h-5.1c0,1.3,1.1,2.4,2.4,2.4c0.9,0,1.7-0.5,2.1-1.3h0.3c-0.4,1-1.4,1.7-2.5,1.6
			c-1.5-0.2-2.6-1.7-2.4-3.2c0.2-1.2,1.2-2.2,2.4-2.4c1.5,0,2.7,1.2,2.7,2.6c0,0,0,0.1,0,0.1C52.7,49.7,52.7,49.8,52.7,49.8
			 M50,47.2c-1.3,0-2.3,1-2.4,2.3h4.7C52.3,48.2,51.3,47.2,50,47.2z"/>
		<path class="st0" d="M59.2,47v5.4h-0.3l0-1.4c-0.4,0.9-1.4,1.5-2.5,1.5c-1.5-0.2-2.6-1.7-2.4-3.2c0.2-1.2,1.2-2.2,2.4-2.4
			c1.1,0,2,0.6,2.5,1.5l0-1.4H59.2z M58.8,49.7c0.1-1.3-1-2.4-2.3-2.5c-0.1,0-0.1,0-0.2,0c-1.4,0-2.5,1.1-2.5,2.5
			c0,1.4,1.1,2.5,2.5,2.5l0,0c1.3,0,2.4-1,2.4-2.3C58.8,49.8,58.8,49.8,58.8,49.7"/>
		<path class="st0" d="M63.8,52.1v0.3h-0.7c-0.8,0.1-1.6-0.6-1.6-1.4c0-0.1,0-0.2,0-0.3v-3.5h-1.2V47h1.2v-1.6h0.3V47h2v0.3h-2v3.5
			c-0.1,0.7,0.4,1.3,1.1,1.3c0.1,0,0.2,0,0.3,0L63.8,52.1z"/>
		<path class="st0" d="M64.9,45.3h0.5v0.6h-0.5V45.3z M65,47h0.3v5.4H65V47z"/>
		<polygon class="st0" points="71.6,47 69.2,52.4 69,52.4 66.5,47 66.8,47 69.1,52 71.3,47 		"/>
		<path class="st0" d="M77.6,49.8h-5c0,1.3,1,2.4,2.3,2.4c0,0,0,0,0,0c0.9,0,1.7-0.5,2.1-1.3h0.3c-0.4,1-1.4,1.7-2.5,1.6
			c-1.5-0.2-2.6-1.7-2.4-3.2c0.2-1.2,1.2-2.2,2.4-2.4c1.5,0,2.7,1.2,2.7,2.6c0,0,0,0.1,0,0.1C77.6,49.7,77.6,49.8,77.6,49.8
			 M75,47.2c-1.3,0-2.3,1-2.4,2.3h4.7C77.3,48.2,76.3,47.2,75,47.2z"/>
		<polygon class="st0" points="90.5,45.4 88.3,52.4 88,52.4 85.8,46.4 83.6,52.4 83.3,52.4 81,45.4 81.3,45.4 83.4,51.8 85.7,45.7 
			85.8,45.7 88.1,51.8 90.2,45.4 		"/>
		<path class="st0" d="M96.4,49.8h-5c0,1.3,1,2.4,2.4,2.4c0,0,0,0,0,0c0.9,0,1.7-0.5,2.1-1.3h0.3c-0.4,1-1.4,1.7-2.5,1.6
			c-1.5-0.2-2.6-1.7-2.4-3.2c0.2-1.2,1.2-2.2,2.4-2.4c1.5,0,2.6,1.2,2.7,2.6c0,0,0,0.1,0,0.1C96.4,49.7,96.4,49.8,96.4,49.8
			 M93.8,47.2c-1.3,0-2.3,1-2.4,2.3h4.7C96.1,48.2,95,47.2,93.8,47.2z"/>
		<path class="st0" d="M103.4,49.7c0,1.5-1.2,2.8-2.7,2.8c-1.1,0-2-0.6-2.5-1.5l0,1.4h-0.3v-7.3h0.3v3.3c0.7-1.3,2.4-1.9,3.7-1.2
			C102.8,47.7,103.4,48.7,103.4,49.7 M103,49.7c0.1-1.3-1-2.4-2.3-2.5c-0.1,0-0.1,0-0.2,0c-1.4,0-2.5,1.1-2.5,2.5
			c0,1.4,1.1,2.5,2.5,2.5c1.3,0,2.4-1,2.4-2.3C103,49.8,103,49.8,103,49.7"/>
		<path class="st0" d="M107.2,50.3h0.3c0,1.1,0.8,1.8,2.1,1.8c1.1,0,2-0.7,2-1.6c0-1.1-1-1.3-2-1.6c-1-0.2-2.3-0.5-2.3-1.8
			c0-1.1,0.9-1.8,2.3-1.8c1.4,0,2.2,0.8,2.2,1.9h-0.3c0-1-0.7-1.6-1.9-1.6s-1.9,0.6-1.9,1.5c0,1.1,1,1.3,2,1.5s2.3,0.5,2.3,1.9
			c0,1.2-1,2-2.3,2C108.2,52.5,107.2,51.6,107.2,50.3"/>
		<path class="st0" d="M113,49.7c0-1.6,1.3-2.8,2.8-2.8s2.8,1.3,2.8,2.8c0,1.6-1.3,2.8-2.8,2.8c-1.5,0.1-2.8-1.1-2.8-2.6
			C113,49.8,113,49.8,113,49.7 M118.3,49.7c0-1.4-1.1-2.5-2.5-2.5c-1.4,0-2.5,1.1-2.5,2.5c0,1.4,1.1,2.5,2.5,2.5
			c1.3,0,2.4-1,2.5-2.4C118.3,49.8,118.3,49.8,118.3,49.7"/>
		<rect x="120.1" y="45.1" class="st0" width="0.3" height="7.3"/>
		<path class="st0" d="M122.3,50.1V47h0.3v3.1c0,1.3,0.8,2.1,2,2.1c1.2,0,2-0.8,2-2.1V47h0.3v3.1c0,1.3-1,2.3-2.3,2.3
			S122.3,51.4,122.3,50.1"/>
		<path class="st0" d="M131.4,52.1v0.3h-0.7c-0.8,0.1-1.6-0.6-1.6-1.4c0-0.1,0-0.2,0-0.3v-3.5h-1.2V47h1.2v-1.6h0.3V47h2v0.3h-2v3.5
			c-0.1,0.7,0.4,1.3,1.1,1.3c0.1,0,0.2,0,0.3,0L131.4,52.1z"/>
		<path class="st0" d="M132.5,45.3h0.5v0.6h-0.5V45.3z M132.5,47h0.3v5.4h-0.3V47z"/>
		<path class="st0" d="M134.3,49.7c0-1.6,1.3-2.8,2.8-2.8s2.8,1.3,2.8,2.8c0,1.6-1.3,2.8-2.8,2.8c-1.5,0.1-2.8-1.1-2.8-2.6
			C134.3,49.8,134.3,49.8,134.3,49.7 M139.6,49.7c0-1.4-1.1-2.5-2.5-2.5c-1.4,0-2.5,1.1-2.5,2.5c0,1.4,1.1,2.5,2.5,2.5
			c1.3,0,2.4-1,2.5-2.4C139.6,49.8,139.6,49.8,139.6,49.7"/>
		<path class="st0" d="M146,49.2v3.2h-0.3v-3.1c0-1.3-0.7-2.1-1.9-2.1c-1.1,0-2,0.9-2,2.1v3.1h-0.3V47h0.3l0.1,1.2
			c0.4-0.8,1.2-1.3,2.1-1.3C145.2,46.9,146,47.8,146,49.2"/>
		<path class="st0" d="M147.4,50.9h0.3c0.1,0.8,0.7,1.3,1.8,1.3c1,0,1.7-0.5,1.7-1.2c0-0.9-0.9-1.1-1.8-1.2
			c-0.9-0.1-1.9-0.3-1.9-1.4c0-0.9,0.8-1.4,1.9-1.4s1.9,0.6,1.9,1.5H151c-0.1-0.8-0.7-1.2-1.6-1.2c-1,0-1.6,0.5-1.6,1.1
			c0,0.8,0.8,0.9,1.7,1.1s2,0.4,2,1.5c0,0.9-0.8,1.5-2,1.5C148.2,52.5,147.4,51.9,147.4,50.9"/>
		<path class="st0" d="M21.8,27.8v6.1H17c-4.5,0-7.2-2.7-7.2-7.2v-9H6.2V16l9-9.6h1.4v5.9h5.1v5.3h-4.9v7.8
			c-0.1,1.2,0.8,2.2,1.9,2.3c0.1,0,0.3,0,0.4,0H21.8z"/>
		<path class="st0" d="M45,21.7v12.1H38V22.5c0-2.3-0.8-3.5-2.6-3.5C33.3,19,32,20.5,32,23v10.8h-6.9V6.4H32V15
			c1.5-1.2,3.4-1.9,5.4-1.9C42,13.1,45,16.5,45,21.7"/>
		<path class="st0" d="M62.2,13.6v6.3h-2.7c-2.5,0-3.5,1.1-3.5,3.7v10.2h-6.9V13.7h4.6l1.1,2.2c1.4-1.6,3.2-2.3,5.6-2.3L62.2,13.6z"
			/>
		<path class="st0" d="M85.3,23.6c0,0.6-0.1,1.2-0.1,1.8h-15c0.5,2.3,1.9,3.5,4.1,3.5c1.5,0.1,2.9-0.6,3.6-1.9h6.9
			c-1.4,4.6-5.5,7.5-10.5,7.5c-6.3,0-10.9-4.6-10.9-10.8S68,13,74.3,13C80.8,13,85.3,17.7,85.3,23.6z M70.3,21.6h8.1
			c-0.5-1.9-2.2-3.2-4.2-3.1C72.4,18.4,70.7,19.7,70.3,21.6"/>
		<path class="st0" d="M109.2,23.6c0,0.6-0.1,1.2-0.1,1.8h-15c0.5,2.3,1.9,3.5,4.1,3.5c1.5,0.1,2.9-0.6,3.6-1.9h6.9
			c-1.4,4.6-5.5,7.5-10.5,7.5c-6.3,0-10.9-4.6-10.9-10.8S91.9,13,98.2,13C104.7,13,109.2,17.6,109.2,23.6L109.2,23.6z M94.2,21.6
			h8.1c-0.5-1.9-2.2-3.2-4.2-3.1C96.3,18.4,94.6,19.7,94.2,21.6"/>
		<path class="st0" d="M133.2,23.6c0,0.6-0.1,1.2-0.1,1.8h-15c0.5,2.3,1.9,3.5,4.1,3.5c1.5,0.1,2.9-0.6,3.7-1.9h6.9
			c-1.4,4.6-5.5,7.5-10.5,7.5c-6.3,0-10.9-4.6-10.9-10.8S115.8,13,122.1,13C128.6,13,133.2,17.7,133.2,23.6z M118.2,21.6h8.1
			c-0.5-1.9-2.2-3.2-4.1-3.1C120.3,18.4,118.6,19.7,118.2,21.6"/>
		<polygon class="st1" points="165.7,13.7 159.2,33.8 153.6,33.8 149.7,24.8 145.8,33.8 140.2,33.8 133.6,13.7 140.9,13.7 
			143.9,24.3 148.7,13.8 150.5,13.8 155.6,24.4 158.6,13.7 		"/>
		<polygon class="st1" points="167.8,13.7 161.4,33.8 164.5,33.8 170.9,13.7 		"/>
		<polygon class="st1" points="173,13.7 166.6,33.8 169.6,33.8 176.1,13.7 		"/>
		<polygon class="st1" points="178.2,13.7 171.8,33.8 174.9,33.8 181.3,13.7 		"/>
	</g>
</g>
</svg>
